<svg width="875" height="693" viewBox="0 0 875 693" fill="none" xmlns="http://www.w3.org/2000/svg">
<rect x="165" y="166" width="570" height="368" rx="16" fill="#F8E71C"/>
<path opacity="0.148647" fill-rule="evenodd" clip-rule="evenodd" d="M80 102C80 104.209 78.2091 106 76 106C73.7909 106 72 104.209 72 102C72 99.7909 73.7909 98 76 98C78.2091 98 80 99.7909 80 102ZM104 102C104 104.209 102.209 106 100 106C97.7909 106 96 104.209 96 102C96 99.7909 97.7909 98 100 98C102.209 98 104 99.7909 104 102ZM124 106C126.209 106 128 104.209 128 102C128 99.7909 126.209 98 124 98C121.791 98 120 99.7909 120 102C120 104.209 121.791 106 124 106ZM152 102C152 104.209 150.209 106 148 106C145.791 106 144 104.209 144 102C144 99.7909 145.791 98 148 98C150.209 98 152 99.7909 152 102ZM172 106C174.209 106 176 104.209 176 102C176 99.7909 174.209 98 172 98C169.791 98 168 99.7909 168 102C168 104.209 169.791 106 172 106ZM200 102C200 104.209 198.209 106 196 106C193.791 106 192 104.209 192 102C192 99.7909 193.791 98 196 98C198.209 98 200 99.7909 200 102ZM220 106C222.209 106 224 104.209 224 102C224 99.7909 222.209 98 220 98C217.791 98 216 99.7909 216 102C216 104.209 217.791 106 220 106ZM248 102C248 104.209 246.209 106 244 106C241.791 106 240 104.209 240 102C240 99.7909 241.791 98 244 98C246.209 98 248 99.7909 248 102ZM76 130C78.2091 130 80 128.209 80 126C80 123.791 78.2091 122 76 122C73.7909 122 72 123.791 72 126C72 128.209 73.7909 130 76 130ZM104 126C104 128.209 102.209 130 100 130C97.7909 130 96 128.209 96 126C96 123.791 97.7909 122 100 122C102.209 122 104 123.791 104 126ZM124 130C126.209 130 128 128.209 128 126C128 123.791 126.209 122 124 122C121.791 122 120 123.791 120 126C120 128.209 121.791 130 124 130ZM152 126C152 128.209 150.209 130 148 130C145.791 130 144 128.209 144 126C144 123.791 145.791 122 148 122C150.209 122 152 123.791 152 126ZM172 130C174.209 130 176 128.209 176 126C176 123.791 174.209 122 172 122C169.791 122 168 123.791 168 126C168 128.209 169.791 130 172 130ZM200 126C200 128.209 198.209 130 196 130C193.791 130 192 128.209 192 126C192 123.791 193.791 122 196 122C198.209 122 200 123.791 200 126ZM220 130C222.209 130 224 128.209 224 126C224 123.791 222.209 122 220 122C217.791 122 216 123.791 216 126C216 128.209 217.791 130 220 130ZM248 126C248 128.209 246.209 130 244 130C241.791 130 240 128.209 240 126C240 123.791 241.791 122 244 122C246.209 122 248 123.791 248 126ZM76 154C78.2091 154 80 152.209 80 150C80 147.791 78.2091 146 76 146C73.7909 146 72 147.791 72 150C72 152.209 73.7909 154 76 154ZM104 150C104 152.209 102.209 154 100 154C97.7909 154 96 152.209 96 150C96 147.791 97.7909 146 100 146C102.209 146 104 147.791 104 150ZM124 154C126.209 154 128 152.209 128 150C128 147.791 126.209 146 124 146C121.791 146 120 147.791 120 150C120 152.209 121.791 154 124 154ZM152 150C152 152.209 150.209 154 148 154C145.791 154 144 152.209 144 150C144 147.791 145.791 146 148 146C150.209 146 152 147.791 152 150ZM172 154C174.209 154 176 152.209 176 150C176 147.791 174.209 146 172 146C169.791 146 168 147.791 168 150C168 152.209 169.791 154 172 154ZM200 150C200 152.209 198.209 154 196 154C193.791 154 192 152.209 192 150C192 147.791 193.791 146 196 146C198.209 146 200 147.791 200 150ZM220 154C222.209 154 224 152.209 224 150C224 147.791 222.209 146 220 146C217.791 146 216 147.791 216 150C216 152.209 217.791 154 220 154ZM248 150C248 152.209 246.209 154 244 154C241.791 154 240 152.209 240 150C240 147.791 241.791 146 244 146C246.209 146 248 147.791 248 150ZM76 178C78.2091 178 80 176.209 80 174C80 171.791 78.2091 170 76 170C73.7909 170 72 171.791 72 174C72 176.209 73.7909 178 76 178ZM104 174C104 176.209 102.209 178 100 178C97.7909 178 96 176.209 96 174C96 171.791 97.7909 170 100 170C102.209 170 104 171.791 104 174ZM124 178C126.209 178 128 176.209 128 174C128 171.791 126.209 170 124 170C121.791 170 120 171.791 120 174C120 176.209 121.791 178 124 178ZM152 174C152 176.209 150.209 178 148 178C145.791 178 144 176.209 144 174C144 171.791 145.791 170 148 170C150.209 170 152 171.791 152 174ZM172 178C174.209 178 176 176.209 176 174C176 171.791 174.209 170 172 170C169.791 170 168 171.791 168 174C168 176.209 169.791 178 172 178ZM200 174C200 176.209 198.209 178 196 178C193.791 178 192 176.209 192 174C192 171.791 193.791 170 196 170C198.209 170 200 171.791 200 174ZM220 178C222.209 178 224 176.209 224 174C224 171.791 222.209 170 220 170C217.791 170 216 171.791 216 174C216 176.209 217.791 178 220 178ZM248 174C248 176.209 246.209 178 244 178C241.791 178 240 176.209 240 174C240 171.791 241.791 170 244 170C246.209 170 248 171.791 248 174ZM76 202C78.2091 202 80 200.209 80 198C80 195.791 78.2091 194 76 194C73.7909 194 72 195.791 72 198C72 200.209 73.7909 202 76 202ZM104 198C104 200.209 102.209 202 100 202C97.7909 202 96 200.209 96 198C96 195.791 97.7909 194 100 194C102.209 194 104 195.791 104 198ZM124 202C126.209 202 128 200.209 128 198C128 195.791 126.209 194 124 194C121.791 194 120 195.791 120 198C120 200.209 121.791 202 124 202ZM152 198C152 200.209 150.209 202 148 202C145.791 202 144 200.209 144 198C144 195.791 145.791 194 148 194C150.209 194 152 195.791 152 198ZM172 202C174.209 202 176 200.209 176 198C176 195.791 174.209 194 172 194C169.791 194 168 195.791 168 198C168 200.209 169.791 202 172 202ZM200 198C200 200.209 198.209 202 196 202C193.791 202 192 200.209 192 198C192 195.791 193.791 194 196 194C198.209 194 200 195.791 200 198ZM220 202C222.209 202 224 200.209 224 198C224 195.791 222.209 194 220 194C217.791 194 216 195.791 216 198C216 200.209 217.791 202 220 202ZM248 198C248 200.209 246.209 202 244 202C241.791 202 240 200.209 240 198C240 195.791 241.791 194 244 194C246.209 194 248 195.791 248 198ZM76 226C78.2091 226 80 224.209 80 222C80 219.791 78.2091 218 76 218C73.7909 218 72 219.791 72 222C72 224.209 73.7909 226 76 226ZM104 222C104 224.209 102.209 226 100 226C97.7909 226 96 224.209 96 222C96 219.791 97.7909 218 100 218C102.209 218 104 219.791 104 222ZM124 226C126.209 226 128 224.209 128 222C128 219.791 126.209 218 124 218C121.791 218 120 219.791 120 222C120 224.209 121.791 226 124 226ZM152 222C152 224.209 150.209 226 148 226C145.791 226 144 224.209 144 222C144 219.791 145.791 218 148 218C150.209 218 152 219.791 152 222ZM172 226C174.209 226 176 224.209 176 222C176 219.791 174.209 218 172 218C169.791 218 168 219.791 168 222C168 224.209 169.791 226 172 226ZM200 222C200 224.209 198.209 226 196 226C193.791 226 192 224.209 192 222C192 219.791 193.791 218 196 218C198.209 218 200 219.791 200 222ZM220 226C222.209 226 224 224.209 224 222C224 219.791 222.209 218 220 218C217.791 218 216 219.791 216 222C216 224.209 217.791 226 220 226ZM248 222C248 224.209 246.209 226 244 226C241.791 226 240 224.209 240 222C240 219.791 241.791 218 244 218C246.209 218 248 219.791 248 222ZM76 250C78.2091 250 80 248.209 80 246C80 243.791 78.2091 242 76 242C73.7909 242 72 243.791 72 246C72 248.209 73.7909 250 76 250ZM104 246C104 248.209 102.209 250 100 250C97.7909 250 96 248.209 96 246C96 243.791 97.7909 242 100 242C102.209 242 104 243.791 104 246ZM124 250C126.209 250 128 248.209 128 246C128 243.791 126.209 242 124 242C121.791 242 120 243.791 120 246C120 248.209 121.791 250 124 250ZM152 246C152 248.209 150.209 250 148 250C145.791 250 144 248.209 144 246C144 243.791 145.791 242 148 242C150.209 242 152 243.791 152 246ZM172 250C174.209 250 176 248.209 176 246C176 243.791 174.209 242 172 242C169.791 242 168 243.791 168 246C168 248.209 169.791 250 172 250ZM200 246C200 248.209 198.209 250 196 250C193.791 250 192 248.209 192 246C192 243.791 193.791 242 196 242C198.209 242 200 243.791 200 246ZM220 250C222.209 250 224 248.209 224 246C224 243.791 222.209 242 220 242C217.791 242 216 243.791 216 246C216 248.209 217.791 250 220 250ZM248 246C248 248.209 246.209 250 244 250C241.791 250 240 248.209 240 246C240 243.791 241.791 242 244 242C246.209 242 248 243.791 248 246ZM76 274C78.2091 274 80 272.209 80 270C80 267.791 78.2091 266 76 266C73.7909 266 72 267.791 72 270C72 272.209 73.7909 274 76 274ZM104 270C104 272.209 102.209 274 100 274C97.7909 274 96 272.209 96 270C96 267.791 97.7909 266 100 266C102.209 266 104 267.791 104 270ZM124 274C126.209 274 128 272.209 128 270C128 267.791 126.209 266 124 266C121.791 266 120 267.791 120 270C120 272.209 121.791 274 124 274ZM152 270C152 272.209 150.209 274 148 274C145.791 274 144 272.209 144 270C144 267.791 145.791 266 148 266C150.209 266 152 267.791 152 270ZM172 274C174.209 274 176 272.209 176 270C176 267.791 174.209 266 172 266C169.791 266 168 267.791 168 270C168 272.209 169.791 274 172 274ZM200 270C200 272.209 198.209 274 196 274C193.791 274 192 272.209 192 270C192 267.791 193.791 266 196 266C198.209 266 200 267.791 200 270ZM220 274C222.209 274 224 272.209 224 270C224 267.791 222.209 266 220 266C217.791 266 216 267.791 216 270C216 272.209 217.791 274 220 274ZM248 270C248 272.209 246.209 274 244 274C241.791 274 240 272.209 240 270C240 267.791 241.791 266 244 266C246.209 266 248 267.791 248 270Z" fill="black"/>
<path opacity="0.148647" fill-rule="evenodd" clip-rule="evenodd" d="M635 454C635 456.209 633.209 458 631 458C628.791 458 627 456.209 627 454C627 451.791 628.791 450 631 450C633.209 450 635 451.791 635 454ZM659 454C659 456.209 657.209 458 655 458C652.791 458 651 456.209 651 454C651 451.791 652.791 450 655 450C657.209 450 659 451.791 659 454ZM679 458C681.209 458 683 456.209 683 454C683 451.791 681.209 450 679 450C676.791 450 675 451.791 675 454C675 456.209 676.791 458 679 458ZM707 454C707 456.209 705.209 458 703 458C700.791 458 699 456.209 699 454C699 451.791 700.791 450 703 450C705.209 450 707 451.791 707 454ZM727 458C729.209 458 731 456.209 731 454C731 451.791 729.209 450 727 450C724.791 450 723 451.791 723 454C723 456.209 724.791 458 727 458ZM755 454C755 456.209 753.209 458 751 458C748.791 458 747 456.209 747 454C747 451.791 748.791 450 751 450C753.209 450 755 451.791 755 454ZM775 458C777.209 458 779 456.209 779 454C779 451.791 777.209 450 775 450C772.791 450 771 451.791 771 454C771 456.209 772.791 458 775 458ZM803 454C803 456.209 801.209 458 799 458C796.791 458 795 456.209 795 454C795 451.791 796.791 450 799 450C801.209 450 803 451.791 803 454ZM631 482C633.209 482 635 480.209 635 478C635 475.791 633.209 474 631 474C628.791 474 627 475.791 627 478C627 480.209 628.791 482 631 482ZM659 478C659 480.209 657.209 482 655 482C652.791 482 651 480.209 651 478C651 475.791 652.791 474 655 474C657.209 474 659 475.791 659 478ZM679 482C681.209 482 683 480.209 683 478C683 475.791 681.209 474 679 474C676.791 474 675 475.791 675 478C675 480.209 676.791 482 679 482ZM707 478C707 480.209 705.209 482 703 482C700.791 482 699 480.209 699 478C699 475.791 700.791 474 703 474C705.209 474 707 475.791 707 478ZM727 482C729.209 482 731 480.209 731 478C731 475.791 729.209 474 727 474C724.791 474 723 475.791 723 478C723 480.209 724.791 482 727 482ZM755 478C755 480.209 753.209 482 751 482C748.791 482 747 480.209 747 478C747 475.791 748.791 474 751 474C753.209 474 755 475.791 755 478ZM775 482C777.209 482 779 480.209 779 478C779 475.791 777.209 474 775 474C772.791 474 771 475.791 771 478C771 480.209 772.791 482 775 482ZM803 478C803 480.209 801.209 482 799 482C796.791 482 795 480.209 795 478C795 475.791 796.791 474 799 474C801.209 474 803 475.791 803 478ZM631 506C633.209 506 635 504.209 635 502C635 499.791 633.209 498 631 498C628.791 498 627 499.791 627 502C627 504.209 628.791 506 631 506ZM659 502C659 504.209 657.209 506 655 506C652.791 506 651 504.209 651 502C651 499.791 652.791 498 655 498C657.209 498 659 499.791 659 502ZM679 506C681.209 506 683 504.209 683 502C683 499.791 681.209 498 679 498C676.791 498 675 499.791 675 502C675 504.209 676.791 506 679 506ZM707 502C707 504.209 705.209 506 703 506C700.791 506 699 504.209 699 502C699 499.791 700.791 498 703 498C705.209 498 707 499.791 707 502ZM727 506C729.209 506 731 504.209 731 502C731 499.791 729.209 498 727 498C724.791 498 723 499.791 723 502C723 504.209 724.791 506 727 506ZM755 502C755 504.209 753.209 506 751 506C748.791 506 747 504.209 747 502C747 499.791 748.791 498 751 498C753.209 498 755 499.791 755 502ZM775 506C777.209 506 779 504.209 779 502C779 499.791 777.209 498 775 498C772.791 498 771 499.791 771 502C771 504.209 772.791 506 775 506ZM803 502C803 504.209 801.209 506 799 506C796.791 506 795 504.209 795 502C795 499.791 796.791 498 799 498C801.209 498 803 499.791 803 502ZM631 530C633.209 530 635 528.209 635 526C635 523.791 633.209 522 631 522C628.791 522 627 523.791 627 526C627 528.209 628.791 530 631 530ZM659 526C659 528.209 657.209 530 655 530C652.791 530 651 528.209 651 526C651 523.791 652.791 522 655 522C657.209 522 659 523.791 659 526ZM679 530C681.209 530 683 528.209 683 526C683 523.791 681.209 522 679 522C676.791 522 675 523.791 675 526C675 528.209 676.791 530 679 530ZM707 526C707 528.209 705.209 530 703 530C700.791 530 699 528.209 699 526C699 523.791 700.791 522 703 522C705.209 522 707 523.791 707 526ZM727 530C729.209 530 731 528.209 731 526C731 523.791 729.209 522 727 522C724.791 522 723 523.791 723 526C723 528.209 724.791 530 727 530ZM755 526C755 528.209 753.209 530 751 530C748.791 530 747 528.209 747 526C747 523.791 748.791 522 751 522C753.209 522 755 523.791 755 526ZM775 530C777.209 530 779 528.209 779 526C779 523.791 777.209 522 775 522C772.791 522 771 523.791 771 526C771 528.209 772.791 530 775 530ZM803 526C803 528.209 801.209 530 799 530C796.791 530 795 528.209 795 526C795 523.791 796.791 522 799 522C801.209 522 803 523.791 803 526ZM631 554C633.209 554 635 552.209 635 550C635 547.791 633.209 546 631 546C628.791 546 627 547.791 627 550C627 552.209 628.791 554 631 554ZM659 550C659 552.209 657.209 554 655 554C652.791 554 651 552.209 651 550C651 547.791 652.791 546 655 546C657.209 546 659 547.791 659 550ZM679 554C681.209 554 683 552.209 683 550C683 547.791 681.209 546 679 546C676.791 546 675 547.791 675 550C675 552.209 676.791 554 679 554ZM707 550C707 552.209 705.209 554 703 554C700.791 554 699 552.209 699 550C699 547.791 700.791 546 703 546C705.209 546 707 547.791 707 550ZM727 554C729.209 554 731 552.209 731 550C731 547.791 729.209 546 727 546C724.791 546 723 547.791 723 550C723 552.209 724.791 554 727 554ZM755 550C755 552.209 753.209 554 751 554C748.791 554 747 552.209 747 550C747 547.791 748.791 546 751 546C753.209 546 755 547.791 755 550ZM775 554C777.209 554 779 552.209 779 550C779 547.791 777.209 546 775 546C772.791 546 771 547.791 771 550C771 552.209 772.791 554 775 554ZM803 550C803 552.209 801.209 554 799 554C796.791 554 795 552.209 795 550C795 547.791 796.791 546 799 546C801.209 546 803 547.791 803 550ZM631 578C633.209 578 635 576.209 635 574C635 571.791 633.209 570 631 570C628.791 570 627 571.791 627 574C627 576.209 628.791 578 631 578ZM659 574C659 576.209 657.209 578 655 578C652.791 578 651 576.209 651 574C651 571.791 652.791 570 655 570C657.209 570 659 571.791 659 574ZM679 578C681.209 578 683 576.209 683 574C683 571.791 681.209 570 679 570C676.791 570 675 571.791 675 574C675 576.209 676.791 578 679 578ZM707 574C707 576.209 705.209 578 703 578C700.791 578 699 576.209 699 574C699 571.791 700.791 570 703 570C705.209 570 707 571.791 707 574ZM727 578C729.209 578 731 576.209 731 574C731 571.791 729.209 570 727 570C724.791 570 723 571.791 723 574C723 576.209 724.791 578 727 578ZM755 574C755 576.209 753.209 578 751 578C748.791 578 747 576.209 747 574C747 571.791 748.791 570 751 570C753.209 570 755 571.791 755 574ZM775 578C777.209 578 779 576.209 779 574C779 571.791 777.209 570 775 570C772.791 570 771 571.791 771 574C771 576.209 772.791 578 775 578ZM803 574C803 576.209 801.209 578 799 578C796.791 578 795 576.209 795 574C795 571.791 796.791 570 799 570C801.209 570 803 571.791 803 574ZM631 602C633.209 602 635 600.209 635 598C635 595.791 633.209 594 631 594C628.791 594 627 595.791 627 598C627 600.209 628.791 602 631 602ZM659 598C659 600.209 657.209 602 655 602C652.791 602 651 600.209 651 598C651 595.791 652.791 594 655 594C657.209 594 659 595.791 659 598ZM679 602C681.209 602 683 600.209 683 598C683 595.791 681.209 594 679 594C676.791 594 675 595.791 675 598C675 600.209 676.791 602 679 602ZM707 598C707 600.209 705.209 602 703 602C700.791 602 699 600.209 699 598C699 595.791 700.791 594 703 594C705.209 594 707 595.791 707 598ZM727 602C729.209 602 731 600.209 731 598C731 595.791 729.209 594 727 594C724.791 594 723 595.791 723 598C723 600.209 724.791 602 727 602ZM755 598C755 600.209 753.209 602 751 602C748.791 602 747 600.209 747 598C747 595.791 748.791 594 751 594C753.209 594 755 595.791 755 598ZM775 602C777.209 602 779 600.209 779 598C779 595.791 777.209 594 775 594C772.791 594 771 595.791 771 598C771 600.209 772.791 602 775 602ZM803 598C803 600.209 801.209 602 799 602C796.791 602 795 600.209 795 598C795 595.791 796.791 594 799 594C801.209 594 803 595.791 803 598ZM631 626C633.209 626 635 624.209 635 622C635 619.791 633.209 618 631 618C628.791 618 627 619.791 627 622C627 624.209 628.791 626 631 626ZM659 622C659 624.209 657.209 626 655 626C652.791 626 651 624.209 651 622C651 619.791 652.791 618 655 618C657.209 618 659 619.791 659 622ZM679 626C681.209 626 683 624.209 683 622C683 619.791 681.209 618 679 618C676.791 618 675 619.791 675 622C675 624.209 676.791 626 679 626ZM707 622C707 624.209 705.209 626 703 626C700.791 626 699 624.209 699 622C699 619.791 700.791 618 703 618C705.209 618 707 619.791 707 622ZM727 626C729.209 626 731 624.209 731 622C731 619.791 729.209 618 727 618C724.791 618 723 619.791 723 622C723 624.209 724.791 626 727 626ZM755 622C755 624.209 753.209 626 751 626C748.791 626 747 624.209 747 622C747 619.791 748.791 618 751 618C753.209 618 755 619.791 755 622ZM775 626C777.209 626 779 624.209 779 622C779 619.791 777.209 618 775 618C772.791 618 771 619.791 771 622C771 624.209 772.791 626 775 626ZM803 622C803 624.209 801.209 626 799 626C796.791 626 795 624.209 795 622C795 619.791 796.791 618 799 618C801.209 618 803 619.791 803 622Z" fill="black"/>
<g filter="url(#filter0_d_2_202)">
<mask id="mask0_2_202" style="mask-type:luminance" maskUnits="userSpaceOnUse" x="165" y="10" width="570" height="524">
<rect x="165" y="10" width="570" height="524" rx="16" fill="white"/>
</mask>
<g mask="url(#mask0_2_202)">
<path fill-rule="evenodd" clip-rule="evenodd" d="M640.096 491.632C651.136 534.696 637.888 642.912 637.888 642.912L546.232 646.24L567.208 472.848L640.096 491.632Z" fill="#5F46EE"/>
<path fill-rule="evenodd" clip-rule="evenodd" d="M621.392 267.944C618.248 267.744 614.4 262.32 606.968 253.104C602.544 235.472 614.536 229.656 626.84 222.728C626.84 222.728 578.936 155.736 578.808 178.008C578.48 238.528 546.328 251.96 545.448 251.464C541.56 254.704 610.904 315.728 605.864 320.848C597.56 336.16 621.128 269.984 621.392 267.944Z" fill="#E28B7C"/>
<path fill-rule="evenodd" clip-rule="evenodd" d="M560.04 246.472C568.32 261.376 598.504 291.2 605.864 295.624C605.864 295.624 616.224 272.8 614.152 262.488C613.8 260.808 625.344 271.872 627.952 271.872C630.568 271.872 641.896 489.28 638.992 503.776C638.064 508.368 554.512 513.712 551.752 510.96C543.92 503.128 529.8 259.552 529.8 259.552L560.04 246.472Z" fill="#73ADE9"/>
<path fill-rule="evenodd" clip-rule="evenodd" d="M643.272 226.008C644.184 223.952 642.2 221.872 644.016 211.184C645.352 208.48 646.256 206.464 646.6 205.648C659.08 177.176 654.464 153.808 631.808 143.92C609.168 133.976 587.32 137.224 574.808 165.72C562.344 194.168 572.992 216.784 583.208 229.488C586.616 233.72 606.328 248.344 612.296 247.528C620.272 246.44 628.04 237.704 634.208 228.44C636.776 228.808 641.576 229.808 643.272 226.008Z" fill="#E79A8D"/>
<path fill-rule="evenodd" clip-rule="evenodd" d="M653.632 175.464C652.808 175.448 651.736 176.936 648.368 176.016L648.352 174.632C644.368 173.992 640.792 174.456 633.416 176.912C632.224 177.304 630.52 175.264 629.264 175.816C625.416 177.496 619.36 183.184 614.896 185.096C613.664 185.888 613.512 187.36 612.208 188.288C610.912 189.208 607.968 188.336 606.608 189.408C604.344 191.192 601.704 191.8 599.232 194.048C597.296 195.928 594.2 194.32 594.048 190.392C594.048 190.392 590.984 184.216 586.496 188.976C579.688 196.208 584.72 207.032 584.72 207.032L571.032 217.736C571.032 217.736 540.112 180.712 566.504 147.552C591.4 116.264 625.064 132.784 648.424 150.832C658.92 158.944 653.632 175.464 653.632 175.464Z" fill="#5E1C17"/>
<path fill-rule="evenodd" clip-rule="evenodd" d="M642.504 174.704C629.472 169.008 628.848 154.768 619.576 143.656C610.304 132.552 591.576 128.968 586.64 131.896C594.144 131.984 610.376 130.512 616.696 149.896C623.008 169.288 625.168 175.264 632.32 177.048C639.48 178.808 642.504 174.704 642.504 174.704Z" fill="#873F26"/>
<path fill-rule="evenodd" clip-rule="evenodd" d="M640.568 175.128C633.6 165.12 638.056 159.376 626.672 147.04C615.288 134.704 598.072 132.184 598.072 132.184C598.072 132.184 619.272 134.008 631.08 147.256C642.888 160.488 649.736 176.944 645.936 177.088C642.128 177.232 640.568 175.128 640.568 175.128Z" fill="#873F26"/>
<path fill-rule="evenodd" clip-rule="evenodd" d="M596.864 130.728C598.832 130.68 627.656 134.864 642.432 155.968C652.432 170.248 645.576 174.24 646.768 175.832C647.96 177.432 649.8 175.56 649.992 174.456C650.176 173.36 655.448 163.56 639.128 148.176C620.296 130.432 595.056 130.808 596.864 130.728Z" fill="#873F26"/>
<path fill-rule="evenodd" clip-rule="evenodd" d="M618.816 182.856C610.648 180.984 610.232 172 603.752 156.704C597.272 141.408 591.64 144.08 591.64 144.08C591.64 144.08 600.136 145.016 599.632 153.664C599.128 162.336 611.512 184.424 614.896 185.096C618.288 185.792 618.816 182.856 618.816 182.856Z" fill="#873F26"/>
<path fill-rule="evenodd" clip-rule="evenodd" d="M614.896 185.096C612.232 186.744 610.264 192.264 605.232 181.64C600.192 171.024 596.808 155.776 595.008 153.584C593.168 151.368 594.84 154.048 596.672 161.968C598.52 169.896 601.808 189.768 606.128 190.792C610.424 191.816 614.896 185.096 614.896 185.096Z" fill="#873F26"/>
<path fill-rule="evenodd" clip-rule="evenodd" d="M568.072 148.832C557.36 139.56 541.704 144.096 537.992 165.368C534.92 183.152 557.4 202.68 567.168 190.576C576.944 178.496 568.072 148.832 568.072 148.832Z" fill="#5E1C17"/>
<path fill-rule="evenodd" clip-rule="evenodd" d="M552.848 245.368C552.848 245.368 559.632 257.752 573.464 278.88C585.984 298.008 598.312 335.184 602.008 342.552C605.68 349.912 605.864 418.384 605.864 435.312C605.864 452.24 607.336 664.632 607.336 664.632L499.848 655.8C499.848 655.8 506.472 539.488 508.688 493.848C510.888 448.2 524.88 400.344 524.88 389.296C524.88 378.264 521.192 346.6 519.72 320.096C518.256 293.592 510.52 261.752 510.52 261.752C510.52 261.752 549.248 246.24 552.848 245.368Z" fill="white"/>
<path fill-rule="evenodd" clip-rule="evenodd" d="M608.8 255.32C620.416 260.784 619.84 263.04 630.16 269.664C637.152 274.176 652.16 330.752 660.528 352.488C667.896 371.632 649.84 362.24 648.376 369.6C646.904 376.968 640.832 405.12 646.72 441.944C652.616 478.752 654.456 655.064 654.456 655.064L628.32 660.584C628.32 660.584 627.208 518.856 625.736 498.256C624.256 477.64 625.008 358.752 623.536 348.44C622.056 338.136 622.96 291.688 619.664 281.816C616.344 271.872 608.8 255.32 608.8 255.32Z" fill="white"/>
<path fill-rule="evenodd" clip-rule="evenodd" d="M517.512 320.096C518.984 346.6 522.672 378.264 522.672 389.296C522.672 400.344 508.688 448.2 506.472 493.848C504.272 539.488 497.64 655.8 497.64 655.8L536.504 659C539.608 589.544 540.688 511.744 561.688 400.52C569.056 361.504 539.728 283.512 522.672 267.824C519.928 268.928 508.312 261.752 508.312 261.752C508.312 261.752 516.056 293.592 517.512 320.096Z" fill="#E4E8EF"/>
<path fill-rule="evenodd" clip-rule="evenodd" d="M550.92 244.688C550.92 246.704 544.848 250.336 549.536 267.728C553.456 282.224 566.288 332.792 567.76 336.472C569.24 340.152 563.208 338.552 563.208 338.552C563.208 338.552 545.4 275.968 544.024 269.664C539.608 249.512 544.456 247.568 545.544 246.2C547.968 243.112 550.92 244.688 550.92 244.688Z" fill="black"/>
<path fill-rule="evenodd" clip-rule="evenodd" d="M579.928 344.768C580.776 351.728 576.096 358.032 569.504 358.84C562.904 359.64 556.84 354.648 555.984 347.688C555.128 340.728 559.808 334.432 566.416 333.624C573.024 332.816 579.064 337.808 579.928 344.768Z" fill="#232121"/>
<path fill-rule="evenodd" clip-rule="evenodd" d="M579.272 345.088C580.016 351.24 576.184 356.752 570.704 357.424C565.224 358.104 560.168 353.656 559.432 347.52C558.664 341.376 562.512 335.84 567.984 335.176C573.48 334.504 578.528 338.944 579.272 345.088Z" fill="#B4B9C1"/>
<path fill-rule="evenodd" clip-rule="evenodd" d="M574.928 345.368C575.352 348.72 573.104 351.728 569.944 352.12C566.76 352.488 563.864 350.12 563.456 346.776C563.048 343.464 565.296 340.44 568.464 340.056C571.624 339.672 574.528 342.064 574.928 345.368Z" fill="black"/>
<path fill-rule="evenodd" clip-rule="evenodd" d="M574.2 345.04C574.464 347.272 573.24 349.272 571.44 349.48C569.648 349.712 567.952 348.088 567.68 345.84C567.408 343.616 568.648 341.64 570.448 341.4C572.24 341.176 573.92 342.816 574.2 345.04Z" fill="#B4B9C1"/>
<path fill-rule="evenodd" clip-rule="evenodd" d="M637.48 351.304C631.216 342.328 624.248 319.64 623.392 317.2L624.008 315.944L625.256 316.552C626.08 319.016 633.168 341.736 639.104 350.192C641.48 353.576 644.496 354.8 647.32 354.808C651.224 354.824 654.584 352.264 654.824 349.896V349.912L655.912 349.056L656.752 350.16C656.184 353.968 651.968 356.736 647.32 356.776C643.912 356.776 640.2 355.192 637.48 351.304Z" fill="#959BA5"/>
<path fill-rule="evenodd" clip-rule="evenodd" d="M658.36 350.216C656.416 353.304 655.688 353.312 654.768 352.912C653.864 352.52 653.464 351.224 653.848 348.192C654.256 345.008 656.016 344.576 657.616 345.256C658.528 345.632 660.656 346.6 658.36 350.216Z" fill="#232121"/>
<path fill-rule="evenodd" clip-rule="evenodd" d="M634.592 359.248C631.176 359.232 627.976 357.88 626.696 355.296L627.168 354L628.464 354.448C629.16 356.008 631.672 357.312 634.592 357.296C638.416 357.256 642.632 355.264 644.32 349.832C646.184 343.624 646.56 331.664 646.544 322.896C646.544 318.096 646.448 314.256 646.448 312.728L646.48 312.144L647.608 311.344L648.408 312.48V312.728C648.408 314.184 648.504 318.08 648.504 322.896C648.504 331.744 648.192 343.688 646.2 350.4C644.296 356.688 639.12 359.248 634.632 359.248H634.592Z" fill="#959BA5"/>
<path fill-rule="evenodd" clip-rule="evenodd" d="M625.232 355.96C628.008 358.16 628.656 357.92 629.432 357.232C630.176 356.512 630.176 355.168 628.896 352.448C627.536 349.584 625.792 349.792 624.464 350.984C623.696 351.704 621.984 353.368 625.232 355.96Z" fill="#232121"/>
<path fill-rule="evenodd" clip-rule="evenodd" d="M626.032 323.536L626.776 322.712C628.072 322.488 628.832 322.896 628.992 320.088L628.888 318.512L628.816 317.528C628.832 313.12 632.72 310.336 636.4 310.32L637.584 310.448C641.608 311.08 643.656 313.16 644.368 316.976C644.84 319.048 645.976 319.128 646.856 319.2L647.504 319.144L648.424 319.768L647.808 320.688L646.856 320.768C645.672 320.848 643.368 320.152 642.832 317.304C642.024 313.832 640.968 312.736 637.28 311.984L636.4 311.888C633.456 311.888 630.392 314.16 630.368 317.528L630.44 318.312L630.568 320.088C630.712 323.608 628.168 324.28 626.84 324.28L626.856 324.304L626.032 323.536Z" fill="#959BA5"/>
<path fill-rule="evenodd" clip-rule="evenodd" d="M622.688 317.624C622.216 316.288 622 314.856 622 313.432C622.056 306.416 626.952 298.776 634.544 298.592L634.856 298.608C641.288 298.592 648.768 303.216 649.032 315.216C649.064 316.296 648.224 317.216 647.136 317.24C646.048 317.272 645.144 316.432 645.112 315.352C644.512 304.92 639.688 302.888 634.496 302.512C630.096 302.576 625.944 308.128 625.928 313.432C625.928 314.448 626.088 315.44 626.4 316.352V316.368C626.752 317.392 626.2 318.504 625.184 318.864L624.56 318.96C623.736 318.96 622.96 318.448 622.688 317.624Z" fill="black"/>
<path fill-rule="evenodd" clip-rule="evenodd" d="M625.008 265.984C627.144 269.344 637.104 290.592 637.104 299.768C635.872 301.6 632.92 301.32 632.92 301.32C632.92 301.32 629.648 277.672 621.696 269.112C615.776 262.736 625.008 265.984 625.008 265.984Z" fill="black"/>
<path fill-rule="evenodd" clip-rule="evenodd" d="M562.792 235.424L548.992 247.024L541.808 269.664L569.048 282.192L562.792 293.96C562.792 293.96 600.888 346.408 604.2 354.136C607.52 361.872 597.032 316.6 587.08 300.04C577.152 283.472 567.856 258.792 564.272 249.416C560.68 240.04 562.792 235.424 562.792 235.424Z" fill="#E4E8EF"/>
<path fill-rule="evenodd" clip-rule="evenodd" d="M623.536 354.136L633.104 285.496L623.896 276.664L630.16 269.664L613.968 257.52L605.128 250.16C605.128 250.16 611.936 261.936 615.808 271.872C619.664 281.816 623.536 354.136 623.536 354.136Z" fill="#E4E8EF"/>
<path fill-rule="evenodd" clip-rule="evenodd" d="M608.96 384.888C612.688 385.384 622.8 383.664 623.744 385.368C624.696 387.072 618.368 392.16 615.032 391.8C611.688 391.416 608.44 388.752 608.44 388.752L608.96 384.888Z" fill="#FFDDD2"/>
<path fill-rule="evenodd" clip-rule="evenodd" d="M592.256 430.168L651.88 341.44L708.928 346.6L653.896 432.008L592.256 430.168Z" fill="#5F46EE"/>
<path fill-rule="evenodd" clip-rule="evenodd" d="M596.096 387.624C603.456 385.392 607.752 384.688 610.544 385.008C613.344 385.328 618.184 390.304 614.168 389.16C614.168 389.16 611.808 388.976 614.376 390.168C616.912 391.384 624.472 390.168 627.072 389.464C629.688 388.752 637.28 386.888 638.896 387.088C641.36 387.424 638.168 388.528 635.632 390.688C633.088 392.856 629.024 393.624 626.864 394.448C624.712 395.288 639.16 388.656 641.872 389.232C643.904 389.664 642.224 391.944 639.36 393.544C636.504 395.136 624.712 398.648 624.712 398.648C624.712 398.648 642.112 393.256 642.056 395.168C641.992 397.072 636.912 399.712 632.592 401.376C628.264 403.024 622.104 402.72 622.104 402.72C622.104 402.72 638.752 398.304 638.576 400.68C638.376 403.016 628.688 407.48 623.008 409.704C619.64 411.032 597.944 409.072 594.36 408.064C590.808 407.048 574.952 402.776 574.952 402.776L576.448 387.336L596.096 387.624Z" fill="#E6998C"/>
<path fill-rule="evenodd" clip-rule="evenodd" d="M581.12 383.024L591.8 385.44L586.336 421.704L569.592 415.888L581.12 383.024Z" fill="#B6EEFF"/>
<path fill-rule="evenodd" clip-rule="evenodd" d="M515.696 262.28C503.112 260.088 500.04 282.76 502.112 298.424C504.2 314.088 498.6 366.824 510.912 377.664C529.48 393.984 571.072 433.664 574.392 419.304L586.536 382.304C586.536 382.304 537.792 360.528 537.328 356.384C536.344 347.512 533.72 290.952 530.952 279.848C527.232 264.752 515.696 262.28 515.696 262.28Z" fill="white"/>
<path fill-rule="evenodd" clip-rule="evenodd" d="M493.224 298.928C495.304 314.584 488.32 376.368 500.64 387.192C519.2 403.504 560.04 428.32 571.624 432.736C571.624 432.736 580.68 406.048 579.912 406.032C563.408 405.672 521.104 384.512 514.2 372.92C507.296 361.344 504.272 286.232 510.52 261.752C500.576 257.328 491.144 283.264 493.224 298.928Z" fill="#E4E8EF"/>
<path fill-rule="evenodd" clip-rule="evenodd" d="M689.136 385.872C691.448 388.328 687.568 390.504 687.568 390.504C687.568 390.504 676.984 389.096 676.064 387.456C675.144 385.84 677.816 385.544 680.456 385.584C684.352 385.64 689.136 385.872 689.136 385.872Z" fill="#EAB6AC"/>
<path fill-rule="evenodd" clip-rule="evenodd" d="M686.712 389.84C687.112 391.008 685.984 394.376 684.032 394.232C682.056 394.072 676.096 393.272 676.664 391.584C677.232 389.888 676.68 389.816 680.336 389.64C684.008 389.48 686.712 389.84 686.712 389.84Z" fill="#EAB6AC"/>
<path fill-rule="evenodd" clip-rule="evenodd" d="M691.624 373.424C692.832 374.256 692.744 379.76 690.872 380.136C688.992 380.528 679 379.92 678.744 379.304C678.488 378.704 678.88 376.512 680.912 376.12C682.944 375.736 685.096 375.2 687.288 374.912C689.472 374.632 691.624 373.424 691.624 373.424Z" fill="#EAB6AC"/>
<path fill-rule="evenodd" clip-rule="evenodd" d="M690.872 380.136C693.128 381.816 693.776 383.672 691.552 385.592C689.336 387.504 676.432 385.112 675.912 382.624C675.392 380.144 678.696 380.232 680.52 380.088C682.36 379.984 690.872 380.136 690.872 380.136Z" fill="#EAB6AC"/>
<path fill-rule="evenodd" clip-rule="evenodd" d="M305.128 437.184C307.344 448.24 316.176 521.112 311.76 540.992C307.344 560.872 311.76 609.464 316.176 642.584C320.584 675.712 329.432 806.032 325.008 828.112C291.88 828.112 279.528 830.88 279.528 830.88C279.528 830.88 273.48 704.8 269.056 684.184C261.928 650.896 254.712 613.88 248.08 552.04C241.448 490.192 246.232 448.608 246.232 448.608L305.128 437.184Z" fill="#00404F"/>
<path fill-rule="evenodd" clip-rule="evenodd" d="M329.432 465.528C331.632 476.576 339.736 527.368 335.32 547.248C330.904 567.12 333.488 652.784 342.672 684.928C350.04 710.68 357.408 818.176 352.984 840.264C319.856 840.264 297.776 841.736 297.776 841.736C297.776 841.736 297.232 706.288 283.048 675.344C268.856 644.392 266.12 616.464 259.496 554.608C252.864 492.776 253.6 464.792 253.6 464.792L329.432 465.528Z" fill="#298AEE"/>
<path fill-rule="evenodd" clip-rule="evenodd" d="M326.208 169.664C341.392 167.192 370.376 222.68 367.072 259.952C364.024 294.216 365.696 314.296 371.432 318.144C362.792 319.824 353.2 321.688 348.344 296.712C343.488 271.752 332.056 259.664 333.112 239.512C334.192 219.392 323.864 177.184 323.864 177.184L326.208 169.664Z" fill="#333333"/>
<path fill-rule="evenodd" clip-rule="evenodd" d="M334.216 255.8C330.848 244.44 312.968 235.096 308.264 179.888C306.424 158.152 265.52 209.12 265.52 209.12C277.008 216.848 284.424 241.536 274.856 262.16C260.328 292.752 253.312 306.648 255.256 305.872C246.824 323.904 337.752 259.264 334.216 255.8Z" fill="#DC8B7E"/>
<path fill-rule="evenodd" clip-rule="evenodd" d="M266.736 188.256H266.712V188.248L266.736 188.256Z" fill="black"/>
<path fill-rule="evenodd" clip-rule="evenodd" d="M306.048 257.744C300.032 261.16 260.776 281.48 260.776 281.48C254.168 293.544 250.976 294.792 241.184 312.96C236.656 321.312 239.128 338.152 245.472 343.04C249.808 346.368 242.88 375.216 242.056 381.184C236.192 423.736 233.72 539.888 233.72 539.888C233.72 539.888 348.568 543.184 348.568 535.472C348.568 478.048 324.728 371.408 334.496 315.168C337.504 297.864 348.76 284.92 343.056 266.76C339.64 260.512 334.192 253.344 327.592 243.112C326.208 245.864 322.064 248.632 306.048 257.744Z" fill="white"/>
<path fill-rule="evenodd" clip-rule="evenodd" d="M329.792 245.032C329.792 245.032 324.192 252.24 317.176 256.576C310.176 260.896 267.056 283.52 267.056 283.52L258.648 284.056L256.08 288.928L267.584 285.936C267.584 285.936 315.08 261.712 318.856 258.368C322.624 255.016 329.792 245.032 329.792 245.032Z" fill="#B6EEFF"/>
<path fill-rule="evenodd" clip-rule="evenodd" d="M262.6 439.224C273.888 440.608 307.72 440.952 310.944 439.92C314.184 438.88 318.208 486.056 314.576 487.792C308.264 490.808 256.552 492.992 256.552 484.664C256.552 476.336 262.6 439.224 262.6 439.224Z" fill="#E4E8EF"/>
<path fill-rule="evenodd" clip-rule="evenodd" d="M262.808 440.488C273.112 441.76 304.024 442.072 306.984 441.12C309.936 440.16 313.616 483.264 310.296 484.856C304.52 487.608 257.288 489.6 257.288 482C257.288 474.384 262.808 440.488 262.808 440.488Z" fill="white"/>
<path fill-rule="evenodd" clip-rule="evenodd" d="M271.976 438.184L232.528 331.96L302.248 306.072L341.696 412.296L271.976 438.184Z" fill="#5F46EE"/>
<mask id="mask1_2_202" style="mask-type:luminance" maskUnits="userSpaceOnUse" x="332" y="342" width="12" height="61">
<path fill-rule="evenodd" clip-rule="evenodd" d="M337.976 402.28L334.52 392.976C332.912 375.104 331.92 357.912 332.192 342.52L343.6 396.32L337.976 402.28Z" fill="white"/>
</mask>
<g mask="url(#mask1_2_202)">
<path fill-rule="evenodd" clip-rule="evenodd" d="M337.976 402.28L334.52 392.976C332.912 375.104 331.92 357.912 332.192 342.52L343.6 396.32L337.976 402.28Z" fill="url(#paint0_linear_2_202)"/>
</g>
<mask id="mask2_2_202" style="mask-type:luminance" maskUnits="userSpaceOnUse" x="273" y="270" width="62" height="123">
<path fill-rule="evenodd" clip-rule="evenodd" d="M334.52 392.976L302.248 306.072L273.96 316.576L316.968 270.768L332.192 342.52C331.92 357.912 332.912 375.104 334.52 392.976Z" fill="white"/>
</mask>
<g mask="url(#mask2_2_202)">
<path opacity="0.144834" fill-rule="evenodd" clip-rule="evenodd" d="M334.52 392.976L302.248 306.072L273.96 316.576L316.968 270.768L332.192 342.52C331.92 357.912 332.912 375.104 334.52 392.976Z" fill="url(#paint1_linear_2_202)"/>
</g>
<mask id="mask3_2_202" style="mask-type:luminance" maskUnits="userSpaceOnUse" x="242" y="306" width="96" height="133">
<path fill-rule="evenodd" clip-rule="evenodd" d="M271.976 438.184L242.68 359.288C243.272 352.984 243.664 348.848 243.664 348.848L273.96 316.576L302.248 306.072L337.976 402.28L321.424 419.824L271.976 438.184Z" fill="white"/>
</mask>
<g mask="url(#mask3_2_202)">
<path opacity="0.399112" fill-rule="evenodd" clip-rule="evenodd" d="M271.976 438.184L242.68 359.288C243.272 352.984 243.664 348.848 243.664 348.848L273.96 316.576L302.248 306.072L337.976 402.28L321.424 419.824L271.976 438.184Z" fill="url(#paint2_linear_2_202)"/>
</g>
<path fill-rule="evenodd" clip-rule="evenodd" d="M320.368 318.48C317.04 321.36 323.648 363.504 324.28 372.76C324.536 376.2 309.024 371.88 289.664 379.656C286.52 379.64 283.792 379.336 283.048 378.472C279.768 374.688 276.816 373.256 273.424 371.6C265.568 367.792 262.856 363.888 261.896 364.12C258.584 364.896 264.456 372.944 264.456 372.944C264.456 372.944 257.232 372.2 254.152 372.584C250.416 373.024 247.92 374.08 246.424 375.152C244.328 376.648 243.504 379.576 246.672 378.48C249.832 377.384 252.128 377.176 253.416 377.552L259.392 378.176C259.392 378.176 253.616 377.752 250.48 378.84C247.296 379.92 244.96 382.344 244.96 382.344C244.96 382.344 243.768 385.696 247.16 384.728C249.744 383.992 251.024 383.64 251.024 383.64L258.768 384.912C258.768 384.912 245.536 384.84 246.24 387.864C246.56 389.32 245.76 390.504 251.952 390.072C258.136 389.64 261.4 391.424 261.4 391.424C261.4 391.424 250.872 389.928 248.088 390.808C245.952 391.48 246.104 393.608 250.48 393.944C254.864 394.248 265.608 400.112 273.68 398.048C277.216 397.152 280.744 396.448 284.52 395.856L284.576 395.976C315.072 405.504 341.544 405.248 349.312 398.536C357.096 391.816 358.016 319.48 345.632 299.144C341.728 292.768 323.688 315.608 320.368 318.48Z" fill="#E79A8D"/>
<path fill-rule="evenodd" clip-rule="evenodd" d="M329.808 259.392C355.208 255.344 362.144 335.76 358.872 357.304C334.824 351.968 315.08 356.576 315.08 356.576C315.08 356.576 309.152 300.688 310.296 290.32C312.016 274.416 316.752 261.472 329.808 259.392Z" fill="white"/>
<path fill-rule="evenodd" clip-rule="evenodd" d="M239.048 212.624C238.512 210.488 240.784 208.84 240.8 198.2C239.992 195.376 239.464 193.264 239.248 192.416C232 162.848 240.408 141.064 263.936 135.328C287.448 129.552 308 136.36 315.28 165.976C322.504 195.528 308.416 215.56 296.432 226.104C292.44 229.624 270.936 240.424 265.328 238.624C257.8 236.224 251.768 226.472 247.36 216.512C244.856 216.432 240.032 216.592 239.048 212.624Z" fill="#E6998C"/>
<path fill-rule="evenodd" clip-rule="evenodd" d="M320.176 146.216C304.84 120.832 268.664 125.544 245.432 143.152C240.2 147.136 238.272 151.92 237.608 155.696C226.936 167.632 237.488 169.792 244.592 170.576C251.8 171.336 265.04 173.488 265.48 184.768C267.832 183.744 269.6 179.712 269.024 174.784C273.528 178.312 280.88 182.952 282.512 185.056C284.056 187.208 285.608 176.392 290.704 180.24C297.68 185.472 295.664 198.232 295.664 198.232L310.112 211.6C310.112 211.6 341.656 181.736 320.176 146.216Z" fill="#333333"/>
<g filter="url(#filter1_d_2_202)">
<path fill-rule="evenodd" clip-rule="evenodd" d="M327.28 427.224C327.312 434.672 323.152 452.784 322.528 457.936C321.888 463.08 324.784 473.016 325.352 475.88C326.808 483.088 332.52 491.456 334.304 490.224C335.288 489.592 332.176 481.592 331.536 478.408C330.864 475.176 329.496 466.48 329.496 466.48C329.496 466.48 331.008 478.048 333.608 482.92C336.112 487.608 340.52 493.944 341.456 491.96C342.376 489.92 340.6 486.728 339.32 484.464C338.04 482.248 334.808 466.4 334.808 466.4C334.808 466.4 340.424 484.912 342.008 487.176C343.744 489.656 345.776 488.128 345.2 486.064C344.632 484.024 341.448 471.224 341.304 468.944C341.184 466.616 343.56 482.76 346.08 482.152C347.288 481.856 348.192 478.384 346.584 471.904C344.92 465.4 347.032 458.448 348.584 452.776C350.112 447.16 349.688 429.928 348.168 425.712C346.664 421.504 342.376 410.872 342.376 410.872L325.368 413.424C325.368 413.424 327.296 423.024 327.28 427.224Z" fill="#E79A8D"/>
<path fill-rule="evenodd" clip-rule="evenodd" d="M343.2 432.832C343.568 438.352 342.464 443.872 339.88 449.016C337.304 454.176 334.36 467.424 331.784 468.536C329.208 469.64 328.488 458.224 327.728 453.08C326.992 447.92 324.432 439.816 329.208 430.624C334 421.416 343.2 432.832 343.2 432.832Z" fill="#FFDDD2"/>
<path fill-rule="evenodd" clip-rule="evenodd" d="M351.152 195.792C335.464 213.432 333.048 300.12 332.52 329.752C332.48 332.224 325.904 370.992 319.264 441.656C326.08 441.472 351.664 446.816 356.072 448.288C357.552 429.888 366.4 335.64 366.4 335.64C367.792 330.504 377.936 257.632 373.008 242.88C368.096 228.136 351.152 195.792 351.152 195.792Z" fill="white"/>
<path fill-rule="evenodd" clip-rule="evenodd" d="M366.304 335.544C367 333 369.824 313.84 371.912 293.376C369.608 273.904 366.304 244.256 366.304 244.256C364.824 255.304 356.72 334.816 354.528 348.8C352.552 361.248 341.848 426.712 340.048 444.56C347.256 445.976 353.936 447.488 355.984 448.184C357.456 429.776 366.304 335.544 366.304 335.544Z" fill="#E4E8EF"/>
<path fill-rule="evenodd" clip-rule="evenodd" d="M538.664 546.576C529.84 558.728 465.416 553.936 448.848 556.144C432.288 558.344 390.688 527.048 390.688 527.048L467.984 334.912L514 358.464C514 358.464 524.304 449.752 526.504 472.936C528.72 496.136 538.664 546.576 538.664 546.576Z" fill="#E4E8EF"/>
<path fill-rule="evenodd" clip-rule="evenodd" d="M499.064 369.24C508.416 393.712 513.072 399.328 513.072 440.136C513.072 480.952 502.032 570.84 499.232 601.44C498.408 610.52 489.88 782.864 489.88 795.112C489.88 807.344 444.968 799.304 437.504 793.184C430.008 787.056 432.824 637.264 432.824 616.856C432.824 596.456 433.648 503.904 433.648 487.584C433.648 471.256 439.256 373.312 439.256 373.312L499.064 369.24Z" fill="black"/>
<path fill-rule="evenodd" clip-rule="evenodd" d="M483.32 373.08C486.136 386.576 488 539.776 484.272 591.808L474.896 798.968C474.896 798.968 491.744 798.968 489.88 795.112C488 791.256 496.416 619.752 499.232 601.44C502.048 583.136 517.936 439.552 513.264 424.16C508.592 408.736 502.048 364.424 502.048 364.424L483.32 373.08Z" fill="#212121"/>
<path fill-rule="evenodd" clip-rule="evenodd" d="M388.592 366.888C374.568 390.008 358.896 570.616 356.088 590.832C353.296 611.072 333.64 784.496 333.64 793.184C350.48 813.416 375.736 813.416 384.16 807.64C375.344 813.68 428.52 590.584 426.264 602.416L454.32 443.424L463.504 362.808L388.592 366.888Z" fill="black"/>
<path fill-rule="evenodd" clip-rule="evenodd" d="M419.64 131.312L417.136 165.056L402.536 178.56C402.536 178.56 452.016 224.264 451.696 213.984C451.384 203.672 452.256 132.264 452.256 132.264L419.64 131.312Z" fill="#EAB6AC"/>
<path fill-rule="evenodd" clip-rule="evenodd" d="M489.152 186C489.016 181.528 468.728 178.936 467.984 165.4C464.664 149.384 462.688 139.104 462.472 133.92L445.536 137.4L437.336 250.32C452.16 255.232 489.488 196.2 489.152 186Z" fill="#DF8E80"/>
<mask id="mask4_2_202" style="mask-type:luminance" maskUnits="userSpaceOnUse" x="417" y="131" width="36" height="58">
<path fill-rule="evenodd" clip-rule="evenodd" d="M440.136 188.472L440.016 184.728C432.584 183.952 420.424 171 417.144 165.008L419.64 131.312L452.256 132.264C452.256 132.264 452.24 133.632 452.208 136.024L445.536 137.4L442.12 184.456L440.136 188.472Z" fill="white"/>
</mask>
<g mask="url(#mask4_2_202)">
<path fill-rule="evenodd" clip-rule="evenodd" d="M440.136 188.472L440.016 184.728C432.584 183.952 420.424 171 417.144 165.008L419.64 131.312L452.256 132.264C452.256 132.264 452.24 133.632 452.208 136.024L445.536 137.4L442.12 184.456L440.136 188.472Z" fill="#B65B4B"/>
</g>
<path fill-rule="evenodd" clip-rule="evenodd" d="M470.736 166.768C468.152 170.048 447.656 187.632 439.848 186.816C432.048 185.976 440.288 201.112 440.288 201.112L442.52 375.12L497.352 370.448L502.736 201.112L470.736 166.768Z" fill="#B6DCFF"/>
<path fill-rule="evenodd" clip-rule="evenodd" d="M416.752 164.248C419.328 169.816 432.248 183.912 440.016 184.728L445.896 374.656L393.76 379.8L395.392 183.568C395.392 183.568 414.632 166.56 416.752 164.248Z" fill="#78C3FF"/>
<path fill-rule="evenodd" clip-rule="evenodd" d="M435.136 196.872H440.848V181.968H429.544L429.456 188.408L435.136 196.872Z" fill="#002A68"/>
<path fill-rule="evenodd" clip-rule="evenodd" d="M434.416 194.592L428.712 338.984L444.872 350.92L441.12 194.664L434.416 194.592Z" fill="#412AC2"/>
<path fill-rule="evenodd" clip-rule="evenodd" d="M445.168 196.872H440.432V181.968H452L451.92 188.408L445.168 196.872Z" fill="#02499E"/>
<path fill-rule="evenodd" clip-rule="evenodd" d="M446 194.592L459.944 337.24L444.872 350.92L440.448 194.592H446Z" fill="#5F46EE"/>
<path fill-rule="evenodd" clip-rule="evenodd" d="M434.2 196.72H446.104V195.64H434.336L434.2 196.72Z" fill="#02499E"/>
<path fill-rule="evenodd" clip-rule="evenodd" d="M418.672 564.616C418.672 564.616 344.304 565.536 344.304 562.392C344.304 518.232 370.144 351.648 370.704 331.472C371.152 315.832 372.12 277.88 369.88 271.184C367.632 264.456 360.88 221.528 360.88 221.528C360.88 221.528 342.648 221.568 345.736 206.624C347.064 200.08 351.104 191.72 357.432 190.496C375.44 186.968 373.568 188.032 405.352 174.592C405.352 174.592 406.96 189.704 412.4 200.552C417.896 211.584 422.64 286.144 426.4 297.36C430.376 308.952 418.672 564.616 418.672 564.616Z" fill="white"/>
<path fill-rule="evenodd" clip-rule="evenodd" d="M519.896 562.032L519.144 421.4L516.576 401.16L505.168 386.432L469.088 300.312C469.088 300.312 474.448 282.072 476.088 213.424L478.896 175.16C506.816 188.608 506.104 188.536 524.496 194.8C530.448 196.824 527.48 213.864 527.48 213.864C527.48 213.864 518.296 263.2 516.08 269.888C513.84 276.6 513.776 310.384 514.2 326.008C514.472 335.216 539.408 516.656 539.408 548.408L519.896 562.032Z" fill="white"/>
<path fill-rule="evenodd" clip-rule="evenodd" d="M401.296 391.128L364.992 403.248L364.256 422.392L400.536 414.064L401.296 391.128Z" fill="#E4E8EF"/>
<path fill-rule="evenodd" clip-rule="evenodd" d="M465.496 102.808C461.744 82.544 453.128 64.536 424.056 69.584C387.736 75.872 394.696 97.584 398.472 122.448C402.232 147.28 422.016 171.48 440.576 168.656C454.712 166.496 464.016 149.304 465.96 130.256C469.464 127.536 471.528 121.92 470.848 115.672C469.96 107.52 470.896 102.536 465.496 102.808Z" fill="#E79A8D"/>
<path fill-rule="evenodd" clip-rule="evenodd" d="M412.552 72.408C392.896 79.68 393.84 94.616 396.624 112.216L396.056 115.544C390.416 116.856 393.112 118.848 395.016 127.008C396.64 134.112 402.256 140.784 404.144 141.032C411.904 157.192 425.464 169.552 438.664 168.648C429.68 155.544 421.32 133.84 416.464 108.488C414.024 95.672 412.776 83.424 412.552 72.408Z" fill="#B65B4B"/>
<path fill-rule="evenodd" clip-rule="evenodd" d="M413.696 66.9999C413.696 66.9999 404.472 66.4559 396.056 74.8639C389.928 80.9919 386.888 89.7199 388.408 96.8639C388.504 99.0399 388.696 101.464 389.04 104.08C390.416 114.88 393.176 117.216 393.176 117.216L397.688 117.552C397.688 117.552 392.432 103.36 399.96 94.1919C407.488 85.0399 425.76 86.0479 425.76 86.0479L413.696 66.9999Z" fill="black"/>
<path fill-rule="evenodd" clip-rule="evenodd" d="M462.288 76.336C458.04 70.736 454.376 66.456 447.6 64.832C440 55.336 405.368 63.6 402.336 71.368C397.976 78.256 396.464 90.288 403.384 93.304C420.2 100.624 432.392 90.904 441.088 89.512C447.912 90.784 450.48 91.896 452.752 94.664C455.84 98.392 458.176 108.224 458.176 108.224L466.04 104.68L469.96 105.976C469.96 105.976 470.784 87.656 462.288 76.336Z" fill="#333333"/>
<path fill-rule="evenodd" clip-rule="evenodd" d="M445.328 182.28L458.36 197.408L475.008 169.256L467.984 161.688L445.328 182.28Z" fill="#78BAFF"/>
<path fill-rule="evenodd" clip-rule="evenodd" d="M437.2 181.92L422.704 197.8L413.616 178.368L411.096 169.792L416.12 164.248L437.2 181.92Z" fill="#B6E1FF"/>
<path fill-rule="evenodd" clip-rule="evenodd" d="M516.08 379.32C511.864 387.056 505.552 394.056 501.336 397.576C497.128 401.088 495.024 405.296 495.024 405.296C495.024 405.296 505.552 422.144 511.864 425.648C515.328 427.568 517.472 417.928 518.864 413.008C520.288 408.112 528 396.168 528 396.168L516.08 379.32Z" fill="#E79A8D"/>
<path fill-rule="evenodd" clip-rule="evenodd" d="M398.656 276.792C397.128 276.744 395.944 275.464 396 273.96C396.048 272.464 396.08 271.04 396.08 269.632C396.144 244.408 386.408 222.672 386.312 203.528C386.28 194.136 388.904 185.168 396.448 177.536V177.552C397.52 176.464 399.248 176.448 400.336 177.52C401.424 178.568 401.424 180.32 400.368 181.384C393.92 187.992 391.856 195.04 391.8 203.528C391.704 220.792 401.52 243.08 401.568 269.632C401.568 271.12 401.552 272.608 401.488 274.152C401.44 275.624 400.208 276.792 398.744 276.792H398.656Z" fill="#001C49"/>
<path fill-rule="evenodd" clip-rule="evenodd" d="M412.064 274.864C411.584 281.864 405.528 287.176 398.536 286.696C391.536 286.216 386.24 280.152 386.704 273.152C387.184 266.16 393.248 260.88 400.24 261.344C407.24 261.808 412.528 267.864 412.064 274.864Z" fill="#232121"/>
<path fill-rule="evenodd" clip-rule="evenodd" d="M410.576 274.768C410.152 280.952 404.808 285.616 398.64 285.192C392.448 284.776 387.792 279.448 388.216 273.264C388.624 267.096 393.96 262.408 400.144 262.832C406.312 263.248 410.984 268.6 410.576 274.768Z" fill="#B4B9C1"/>
<path fill-rule="evenodd" clip-rule="evenodd" d="M405.688 274.2C405.472 277.56 402.576 280.096 399.224 279.864C395.888 279.624 393.352 276.744 393.568 273.384C393.8 270.056 396.696 267.52 400.056 267.744C403.384 267.96 405.92 270.864 405.688 274.2Z" fill="black"/>
<path fill-rule="evenodd" clip-rule="evenodd" d="M403.704 274.064C403.552 276.312 401.608 278.016 399.376 277.856C397.128 277.72 395.416 275.76 395.584 273.512C395.72 271.272 397.672 269.584 399.912 269.736C402.152 269.896 403.856 271.816 403.704 274.064Z" fill="#B4B9C1"/>
<path fill-rule="evenodd" clip-rule="evenodd" d="M409.456 170.36C409.584 169.568 395.096 178.088 395.096 178.088L391.856 191.72L403.936 196.496L394.368 208.28L425.76 298.152C425.76 298.152 415.624 206.928 413.136 194.288C410.096 178.792 409.456 170.36 409.456 170.36Z" fill="#E4E8EF"/>
<path fill-rule="evenodd" clip-rule="evenodd" d="M470.2 165.4C472.128 166.04 488.592 177.728 488.592 177.728L493.392 190.24L480.504 192.448L491.544 202.76L469.088 302.52C469.088 302.52 472.4 202.288 473.872 189.504C475.424 176.744 470.2 165.4 470.2 165.4Z" fill="#E4E8EF"/>
<path fill-rule="evenodd" clip-rule="evenodd" d="M480.944 276.072C475.328 263.656 472.472 235.008 472.016 231.896C471.904 231.136 472.44 230.456 473.184 230.344C473.944 230.232 474.624 230.768 474.744 231.512C475.152 234.656 478.16 263.376 483.456 274.928C486.16 280.832 491.216 283.048 495.736 283.056C499.64 283.088 502.88 281.288 503.576 279.304L505.36 278.52L506.136 280.304C504.648 283.904 500.368 285.784 495.736 285.816H495.64C490.272 285.816 484.088 282.984 480.944 276.072Z" fill="#959BA5"/>
<path fill-rule="evenodd" clip-rule="evenodd" d="M508.08 280.76C504.76 283.792 503.848 283.616 502.776 282.872C501.68 282.144 501.52 280.52 502.824 277.088C504.232 273.464 506.568 273.464 508.44 274.72C509.528 275.448 511.984 277.192 508.08 280.76Z" fill="#232121"/>
<path fill-rule="evenodd" clip-rule="evenodd" d="M479.072 285.048C473.024 284.968 467.36 282.064 466.048 277.576C465.848 276.848 466.288 276.088 467.024 275.888C467.752 275.696 468.504 276.136 468.704 276.88C469.192 279.36 473.92 282.376 479.072 282.296C483.168 282.28 487.328 280.648 490.136 276.088C496.696 265.248 502.104 235.912 502.896 232.768C503.096 232.024 503.84 231.592 504.568 231.784C505.296 231.968 505.736 232.728 505.56 233.456C504.76 236.408 499.528 265.768 492.48 277.52C489.208 282.896 483.976 285.048 479.184 285.048H479.072Z" fill="#959BA5"/>
<path fill-rule="evenodd" clip-rule="evenodd" d="M464.08 277.8C467.032 281.2 467.936 281.104 469.096 280.528C470.264 279.904 470.608 278.312 469.72 274.76C468.736 270.984 466.432 270.712 464.416 271.744C463.24 272.352 460.608 273.808 464.08 277.8Z" fill="#232121"/>
<path fill-rule="evenodd" clip-rule="evenodd" d="M497.224 237.696V237.528C497.144 233.32 495.96 231.576 491.416 229.64C490.408 229.224 489.296 229.048 488.176 229.048C484.456 229.056 480.904 231.168 480.6 235.104C480.32 239.648 478.232 241.208 476.232 241.12L474.64 240.96L474.008 240.056L474.92 239.408L476.232 239.56C477.448 239.472 478.544 239.28 479.024 234.968C479.448 230.016 483.92 227.44 488.176 227.472C489.472 227.472 490.784 227.688 492.008 228.2C496.856 230.064 498.88 232.92 498.792 237.528H498.752L498.736 237.664H498.792L498.8 237.704C498.808 241.352 502.456 241.288 502.456 241.336L503.232 242.112L502.456 242.888C502.44 242.888 497.296 242.84 497.224 237.696Z" fill="#959BA5"/>
<path fill-rule="evenodd" clip-rule="evenodd" d="M490.448 218.288C488.992 217.896 488.12 216.392 488.504 214.92C491.424 204.04 492.568 196.536 492.568 191.392C492.56 186.808 491.696 184.192 490.52 182.344C489.696 181.064 490.064 179.344 491.344 178.544C492.624 177.712 494.32 178.088 495.144 179.368C497.024 182.296 498.072 186.144 498.056 191.392C498.056 197.328 496.776 205.208 493.816 216.344L493.832 216.352C493.496 217.576 492.392 218.384 491.176 218.384L490.448 218.288Z" fill="#001C49"/>
<path fill-rule="evenodd" clip-rule="evenodd" d="M502.456 239.176C500.96 238.904 499.976 237.472 500.248 235.976C500.56 234.24 500.704 232.696 500.704 231.312C500.592 223.008 496.008 219.888 490.44 218.288C489.728 218.088 489 217.992 488.272 217.992C482.344 218.008 476.28 224.584 476.28 230.36L476.344 231.512L476.36 231.528C476.568 233.032 475.512 234.4 474.008 234.632C472.504 234.84 471.112 233.792 470.904 232.288L470.776 230.36C470.936 221.296 478.704 212.696 488.272 212.504C489.456 212.504 490.664 212.648 491.848 212.976C498.808 214.592 506.32 220.36 506.208 231.312C506.208 233.08 506.016 234.96 505.656 236.984C505.416 238.296 504.256 239.224 502.952 239.224L502.456 239.176Z" fill="#001C49"/>
<path fill-rule="evenodd" clip-rule="evenodd" d="M524.496 194.8C538.528 196.904 542.272 208.128 547.872 236.2C553.48 264.264 566.592 324.144 568.456 339.104C570.336 354.072 523.784 428.44 523.784 428.44C523.784 428.44 517.472 407.408 497.832 392.672C511.864 360.856 525.888 336.536 525.184 332.328C523.544 322.424 519.816 281.104 516.08 269.888C512.328 258.664 521.912 194.416 524.496 194.8Z" fill="white"/>
<path fill-rule="evenodd" clip-rule="evenodd" d="M525.184 332.184C525.888 336.392 511.864 360.712 497.832 392.52C500.872 394.816 503.496 397.264 505.928 399.744C511.272 389.48 539.424 335.456 541.424 331.464C543.624 327.04 521.696 225.76 520.432 240.904C520.296 242.528 518.36 252.616 515.512 266.84C515.64 268.008 515.824 269 516.08 269.744C519.816 280.968 523.544 322.288 525.184 332.184Z" fill="#E4E8EF"/>
</g>
</g>
</g>
<g filter="url(#filter2_d_2_202)">
<rect x="80" y="423" width="170" height="170" rx="16" fill="white"/>
</g>
<path d="M165 566C197.033 566 223 540.033 223 508C223 475.967 197.033 450 165 450C132.967 450 107 475.967 107 508C107 540.033 132.967 566 165 566Z" fill="#5F46EE"/>
<path fill-rule="evenodd" clip-rule="evenodd" d="M168.4 492.108C167.692 493.244 166.436 494 165 494C162.792 494 161 492.208 161 490C161 487.792 162.792 486 165 486C166.518 486 167.84 486.848 168.518 488.094C173.698 488.684 177.29 491.666 176.984 496.572C176.614 502.29 170.396 511.81 164.982 515.952C164.788 518.098 163.564 520.416 161.394 521.768C163.38 524.986 166.466 526.338 169.83 525.942C173.088 525.56 176.118 523.21 177.75 520.556C176.078 519.274 175 517.262 175 515C175 511.136 178.136 507.998 182 507.998C185.862 507.998 189 511.136 189 515C189 518.872 185.806 522.202 181.544 521.982C179.234 526.246 174.342 530 168.84 530C163.414 530 159.258 527.006 157 521.998C154.894 520.736 153.342 518.124 153.03 515.94C147.48 511.664 141 501.598 141 496.014C141 491.25 144.75 488.65 149.48 488.1C150.156 486.85 151.48 486 153 486C155.208 486 157 487.792 157 490C157 492.208 155.208 494 153 494C151.57 494 150.314 493.248 149.608 492.118C145.508 492.716 144.504 494.692 145.228 497.582C146.494 502.716 152.438 511.318 157.044 513.824C158.558 514.656 159.43 514.666 160.964 513.828C166.416 510.862 172.926 500.434 173 496.112C173.044 493.536 170.942 492.47 168.4 492.108ZM182 518C180.344 518 179 516.652 179 515C179 513.344 180.344 512 182 512C183.656 512 185 513.344 185 515C185 516.652 183.656 518 182 518Z" fill="white"/>
<g filter="url(#filter3_d_2_202)">
<rect x="673" y="206" width="122" height="122" rx="16" fill="white"/>
</g>
<path d="M734 310C757.748 310 777 290.748 777 267C777 243.252 757.748 224 734 224C710.252 224 691 243.252 691 267C691 290.748 710.252 310 734 310Z" fill="#298AEE"/>
<path fill-rule="evenodd" clip-rule="evenodd" d="M749.739 263.501H746.61C746.867 262.77 747.003 262.065 747.003 261.385C747.003 257.896 744.276 255.721 740.967 256.026C736.945 256.396 734.19 261.591 733.5 262.752C732.71 261.457 730.108 256.395 726.028 256.011C722.863 255.712 720 257.782 720 261.384C720 266.048 726.52 272.01 733.501 278.807C735.241 277.117 736.929 275.495 738.487 273.943L739.942 276.728C737.965 278.681 735.789 280.757 733.501 283C724.255 273.944 717 267.696 717 261.394C717 256.453 720.693 253.105 725.511 253C728.755 252.987 731.698 254.436 733.501 257.428C735.267 254.494 738.221 253.015 741.381 253.015C745.977 253.015 750 256.188 750 261.408C750 262.104 749.91 262.8 749.739 263.501ZM733.098 269.501C732.579 270.398 731.61 271.001 730.5 271.001C728.844 271.001 727.5 269.657 727.5 268.001C727.5 266.345 728.844 265.001 730.5 265.001C731.61 265.001 732.579 265.604 733.098 266.501H734.931L737.751 262.436C737.961 262.133 738.315 261.963 738.684 261.987C739.052 262.011 739.38 262.229 739.548 262.557L742.953 269.213L744.173 267.038C744.359 266.706 744.708 266.501 745.089 266.501H753V269.501H746.23L743.592 273.863C743.394 274.192 743.033 274.385 742.649 274.369C742.266 274.354 741.923 274.129 741.751 273.785L738.368 266.946L736.884 269.055C736.688 269.334 736.367 269.501 736.024 269.501H733.098Z" fill="white"/>
<defs>
<filter id="filter0_d_2_202" x="152.528" y="0.573486" width="636.4" height="633.427" filterUnits="userSpaceOnUse" color-interpolation-filters="sRGB">
<feFlood flood-opacity="0" result="BackgroundImageFix"/>
<feColorMatrix in="SourceAlpha" type="matrix" values="0 0 0 0 0 0 0 0 0 0 0 0 0 0 0 0 0 0 127 0" result="hardAlpha"/>
<feOffset dy="20"/>
<feGaussianBlur stdDeviation="40"/>
<feColorMatrix type="matrix" values="0 0 0 0 0 0 0 0 0 0 0 0 0 0 0 0 0 0 0.19752 0"/>
<feBlend mode="normal" in2="BackgroundImageFix" result="effect1_dropShadow_2_202"/>
<feBlend mode="normal" in="SourceGraphic" in2="effect1_dropShadow_2_202" result="shape"/>
</filter>
<filter id="filter1_d_2_202" x="257.731" y="40.5735" width="350.781" height="856.949" filterUnits="userSpaceOnUse" color-interpolation-filters="sRGB">
<feFlood flood-opacity="0" result="BackgroundImageFix"/>
<feColorMatrix in="SourceAlpha" type="matrix" values="0 0 0 0 0 0 0 0 0 0 0 0 0 0 0 0 0 0 127 0" result="hardAlpha"/>
<feOffset dy="20"/>
<feGaussianBlur stdDeviation="20"/>
<feColorMatrix type="matrix" values="0 0 0 0 0 0 0 0 0 0 0 0 0 0 0 0 0 0 0.1 0"/>
<feBlend mode="normal" in2="BackgroundImageFix" result="effect1_dropShadow_2_202"/>
<feBlend mode="normal" in="SourceGraphic" in2="effect1_dropShadow_2_202" result="shape"/>
</filter>
<filter id="filter2_d_2_202" x="0" y="363" width="330" height="330" filterUnits="userSpaceOnUse" color-interpolation-filters="sRGB">
<feFlood flood-opacity="0" result="BackgroundImageFix"/>
<feColorMatrix in="SourceAlpha" type="matrix" values="0 0 0 0 0 0 0 0 0 0 0 0 0 0 0 0 0 0 127 0" result="hardAlpha"/>
<feOffset dy="20"/>
<feGaussianBlur stdDeviation="40"/>
<feColorMatrix type="matrix" values="0 0 0 0 0 0 0 0 0 0 0 0 0 0 0 0 0 0 0.25 0"/>
<feBlend mode="normal" in2="BackgroundImageFix" result="effect1_dropShadow_2_202"/>
<feBlend mode="normal" in="SourceGraphic" in2="effect1_dropShadow_2_202" result="shape"/>
</filter>
<filter id="filter3_d_2_202" x="593" y="146" width="282" height="282" filterUnits="userSpaceOnUse" color-interpolation-filters="sRGB">
<feFlood flood-opacity="0" result="BackgroundImageFix"/>
<feColorMatrix in="SourceAlpha" type="matrix" values="0 0 0 0 0 0 0 0 0 0 0 0 0 0 0 0 0 0 127 0" result="hardAlpha"/>
<feOffset dy="20"/>
<feGaussianBlur stdDeviation="40"/>
<feColorMatrix type="matrix" values="0 0 0 0 0 0 0 0 0 0 0 0 0 0 0 0 0 0 0.25 0"/>
<feBlend mode="normal" in2="BackgroundImageFix" result="effect1_dropShadow_2_202"/>
<feBlend mode="normal" in="SourceGraphic" in2="effect1_dropShadow_2_202" result="shape"/>
</filter>
<linearGradient id="paint0_linear_2_202" x1="229.178" y1="692.725" x2="343.757" y2="692.592" gradientUnits="userSpaceOnUse">
<stop stop-color="#8FC5EA"/>
<stop offset="1" stop-color="#3B5160"/>
</linearGradient>
<linearGradient id="paint1_linear_2_202" x1="229.727" y1="509.404" x2="344.323" y2="508.518" gradientUnits="userSpaceOnUse">
<stop stop-color="white"/>
<stop offset="1" stop-color="#696969"/>
</linearGradient>
<linearGradient id="paint2_linear_2_202" x1="230.134" y1="473.22" x2="344.738" y2="471.34" gradientUnits="userSpaceOnUse">
<stop stop-color="#5F46EE"/>
<stop offset="1" stop-color="#0B0141"/>
</linearGradient>
</defs>
</svg>
