<svg width="77" height="28" viewBox="0 0 77 28" fill="none" xmlns="http://www.w3.org/2000/svg">
<path d="M12.04 19.76L5.52 11.4V28H0.36V0.8H3.64L12.84 13.36L21.2 0.8H24.36V28H19.12V12.32L14.04 19.48L12.04 19.76ZM50.0641 28H31.0241V0.8H47.2641L48.0641 4.88H36.1841V12.2H43.4641L44.3041 16.32H36.1841V23.96H49.2241L50.0641 28ZM64.1472 28H54.2272V0.8H64.3072C68.4939 0.8 71.6005 2.06667 73.6272 4.6C75.6539 7.13333 76.6672 10.3467 76.6672 14.24C76.6672 18.4533 75.5739 21.8 73.3872 24.28C71.2005 26.76 68.1205 28 64.1472 28ZM64.3472 5.2H59.3872V23.64H64.0672C66.2539 23.64 68.0005 22.92 69.3072 21.48C70.6405 20.04 71.3072 17.6267 71.3072 14.24C71.3072 11.4133 70.7472 9.2 69.6272 7.6C68.5072 6 66.7472 5.2 64.3472 5.2Z" fill="#333333"/>
</svg>
